<svg xmlns="http://www.w3.org/2000/svg" xmlns:xlink="http://www.w3.org/1999/xlink" viewBox="0 0 139 50">
    <defs>
        <path id="a" d="M.1 43.525h43.314V.405H.101v43.12z"/>
        <path id="c" d="M93.86.573H0V42.75h93.86V.573z"/>
    </defs>
    <g fill="none" fill-rule="evenodd">
        <g transform="translate(95.533 6.364)">
            <mask id="b" fill="#fff">
                <use xlink:href="#a"/>
            </mask>
            <path fill="#F45334" d="M43.415 21.956c0 11.92-9.698 21.569-21.656 21.569C9.8 43.525.101 33.875.101 21.956.1 10.053 9.799.406 21.759.406c11.958 0 21.656 9.647 21.656 21.55" mask="url(#b)"/>
        </g>
        <path fill="#FFF" d="M119.702 37.533a6.754 6.754 0 0 0-2.096-.44c-1.13-.054-2.188.078-3.298.315-1.103.237-2.212.438-3.32.647-1.054.2-2.133.525-3.198.616-1.856.159-1.417-.04-.334-2.046 1.066-1.976 2.5-4.495 3.79-6.91 1.716-3.208 2.893-6.612 1.198-10.188-2.347-4.953-9.264-1.36-11.644 1.649-.902 1.138 2.558 1.547 3.354.787 1.721-2.294 4.681-3.822 5.078-.293.162 1.438-.305 2.998-.892 4.331-1.465 3.328-3.434 6.23-5.283 9.28-1.211 1.99-1.937 4.283.605 5.13a7.16 7.16 0 0 0 2.479.393c.988-.028 1.942-.27 2.907-.462 1.447-.285 2.895-.58 4.352-.827.747-.126 1.496-.284 2.25-.345a13.564 13.564 0 0 1 2.896.055c.383.052.757.167 1.142.192.339.022 1.147-.516 1.185-.926.047-.512-.845-.829-1.171-.958"/>
        <path fill="#FFF" d="M134.935 26.511c-.73-.066-1.471 0-2.194.107a16.36 16.36 0 0 0-.74.126c-.469.09-.936.188-1.402.287.397-2.06.896-4.283 1.31-6.13.318-1.418.153-3.225-.391-4.148-.16-.27-.995-.504-1.435-.361-.361.118-.87.632-1.14 1.088-.337.57-.778 1.51-.909 1.908-.927 2.824-1.392 5.375-1.974 8.292-.026.128-.046.257-.071.386-.277.06-.554.125-.832.183-.968.206-1.9.54-2.89.647-.403.043-.963.216-1.187-.18-.164-.293.046-.91.118-1.214.22-.926.506-1.838.848-2.726 1.505-3.907 1.964-4.592 2.311-7.002.08-.55.07-1.105-.155-1.624-.19-.44-.492-.52-.865-.533-.412-.015-1 .022-1.379.22-.132.07-.271.144-.38.238-.26.228-.514.5-.723.778-.07.094-.137.192-.2.293-.47.752-.937 1.48-1.291 2.29a54.132 54.132 0 0 0-1.018 2.492 43.622 43.622 0 0 0-1.757 5.874c-.44 1.934-.483 3.77 2.642 3.483 2.186-.202 4.314-.755 6.427-1.35-.078.49-.156.982-.22 1.475-.084.657-.485 3.68-.539 4.338-.067.813-.142 1.683-.104 2.497.015.292.008.575.052.863.031.206.081.507.227.668.228.254.727.349 1.191.258.525-.102.83-.161 1.259-.54.336-.297.584-.846.79-1.311a10.94 10.94 0 0 0 .742-2.325c.3-1.426.927-5.216 1.155-6.654.027-.172.06-.352.09-.529.379-.09.758-.178 1.14-.258a16.356 16.356 0 0 1 2.528-.353 15.3 15.3 0 0 1 1.537-.023c.282.014 1.467.214 1.406-.365-.091-.861-1.281-1.102-1.977-1.165"/>
        <mask id="d" fill="#fff">
            <use xlink:href="#c"/>
        </mask>
        <path fill="#354044" d="M35.83 31.499c-.246 4.11-1.145 8.245-2.974 8.184-1.567-.051-2.333-2.949-2.32-5.852.016-3.41 1.433-7.619 1.433-7.619s1.159.266 1.7.331c.54.066 1.76.167 1.76.167.348 1.165.524 2.722.4 4.789m48.839-9.355c.22-.432.79-.862 1.225-.86.348.003.608.264.604 1.001-.022 3.467-2.026 3.846-2.376 3.93.184-1.515.061-2.99.547-4.07M91.9 35.462a1.176 1.176 0 0 0-.09.075c-1.505 1.342-6.142 4.56-7.622 1.42-.61-1.296-.55-3.02-.54-4.417.006-1.17.102-2.427.196-3.683 2.134-.03 5.194-1.963 5.222-6.73.017-2.992-2.899-3.182-3.684-3.186-6.14-.036-7.457 9.144-7.481 13.348-.002.143.002.278.004.417-1.563 2.86-3.273 5.382-4.878 5.452-.793.034-1.152-1.267-1.147-2.81.01-2.732.922-5.779 1.346-8.657.426-2.905.014-4.835-2.267-4.953-5.35-.279-8.354 7.019-8.626 7.452.096-3.835-1.045-6.114-4.572-6.206-2.482-.064-4.989 3.753-4.989 3.753s.001-.307.014-.792c.04-1.631-.164-5.362-3.213-5.378l-.045.003c-.795-.01-2.2.753-3.5 1.482-1.92 1.077-5.943 2.205-6.185 1.851-1.68-2.462-3.97-3.024-5.504-3.213-3.242-.398-5.849.897-6.022 2.65-.055.554.202 1.06.422 1.352-.749.478-1.432 1.314-2.007 2.39-.698 1.12-1.303 3.208-1.631 4.242-.364 1.146-.817 2.053-1.444 3.188-.856 1.549-2.25 3.927-3.535 4.573-.404.202-1.153.473-1.485-.076-.37-.614-.098-2.399.118-3.315.287-1.223.783-3.262 1.077-4.495.366-1.54.697-3.38.9-4.748.286-1.922.122-4.057-1.664-5.077-2.459-1.405-5.456-.745-7.566.983-1.346 1.103-2.174 2.481-3.183 4.21-.318.546-.928 1.828-.928 1.828s.498-3.532.629-4.488c.82-5.988 1.538-11.861 2.782-17.797.28-1.335.715-2.445.67-3.837-.027-.775-.21-1.245-.493-1.489-1.045-.901-3.439 1.285-4.155 2.48-1.596 2.66-2.374 5.832-3.04 8.828C1.793 21.06.031 39.695.01 40.066c-.053.929.086 2.566 1.578 2.652.794.045 1.252.042 2.491-.447 1.205-.476 1.894-1.564 2.49-2.965.645-1.522 1.438-3.61 2.084-5.31.651-1.716 1.042-2.917 1.81-4.322.628-1.152 1.648-2.51 2.982-2.917.49-.15 1.545-.35 1.348.48-.084.349-1.209 4.456-1.493 5.61a42.73 42.73 0 0 0-.539 2.564c-.762 4.267 2.073 8.494 6.828 7.05 2.248-.68 3.965-2.2 5.254-4.028.185-.26.371-.565.557-.888 1.19 3.839 4.672 5.095 6.398 5.182 2.995.15 9.335-1.918 9.37-13.17.003-.78-.13-2.057-.196-2.71.008.087 2.48-.323 4.321-.92a8.95 8.95 0 0 0 1.316-.55c-.946 4.41-1.149 10.826-1.203 13.193-.08 3.526.692 4.12 1.91 4.15.566.016 1.325-.097 1.325-.097 2.809-.81 2.816-2.794 2.816-2.794.183-9.432 5.167-14.227 6.263-14.198.349.009.437.41.453 1.027.055 2.074-.383 4.191-1.376 7.855-.529 1.948-.86 3.478-.885 4.403-.079 3.13 1.79 3.355 2.138 3.364l.043.001c1.83.048 2.159-1.62 2.159-1.62 3.936-12.31 7.402-13.935 7.402-13.935-.69 3.159-1.47 6.448-1.54 9.225-.092 3.638 1.285 6.862 5.484 6.676 2.487-.11 4.887-2.838 6.75-5.743 1.245 5.36 4.76 5.838 6.244 5.848 2.525.014 4.985-1.146 6.63-2.951.493-.541.987-1.1 1.427-1.685.332-.443 1.196-1.445 1.212-2.029.03-1.246-1.275-1.12-1.959-.604" mask="url(#d)"/>
    </g>
</svg>
